<svg width="297" height="293" viewBox="0 0 297 293" fill="none" xmlns="http://www.w3.org/2000/svg">
<g clip-path="url(#clip0_9_3)">
<path d="M168.061 134.528L178.816 104.49L153.88 124.625L140.023 96.0376L136.779 127.64L106.239 117.287L126.399 141.874L97.1831 155.67L129.356 158.642L118.602 188.691L143.748 168.518L157.606 197.106L160.85 165.503L191.378 175.858L171.034 151.516L200.25 137.72L168.061 134.528ZM157.783 146.758C157.821 146.975 157.639 147.23 157.675 147.436C157.711 147.642 157.567 148.113 157.6 148.299C157.417 148.554 157.455 148.77 157.304 149.2C157.121 149.456 157.159 149.672 156.975 149.917C156.818 150.351 156.598 150.762 156.324 151.136L156.141 151.391C155.776 151.902 155.413 152.178 155.006 152.696C154.824 152.951 154.603 152.99 154.431 153.243C154.259 153.497 153.98 153.694 153.676 153.812L153.665 153.814C153.472 153.993 153.23 154.113 152.968 154.16L152.853 154.18C152.632 154.219 152.24 154.511 152.05 154.544C151.609 154.622 151.248 154.909 150.765 154.994L149.925 155.142L149.706 155.192C149.323 155.26 148.93 155.249 148.552 155.161L148.575 155.168C148.355 155.207 147.886 155.066 147.697 155.1C147.508 155.133 147.007 154.998 146.818 155.032C146.56 154.854 146.129 154.93 145.902 154.747C145.674 154.564 145.422 154.609 145.174 154.43C144.633 154.225 144.127 153.942 143.672 153.59L143.413 153.412C142.896 153.058 142.617 152.703 142.092 152.307C141.833 152.13 141.795 151.914 141.538 151.747C141.281 151.58 141.205 151.147 140.952 151C140.771 150.812 140.65 150.575 140.604 150.318L140.584 150.205C140.546 149.989 140.287 149.811 140.251 149.605C139.749 148.512 139.541 147.31 139.646 146.112L139.644 146.165C139.606 145.949 139.789 145.694 139.752 145.488C139.676 145.055 139.86 144.81 140.005 144.339C139.967 144.123 140.149 143.868 140.113 143.662C140.295 143.406 140.221 142.984 140.409 142.76C140.631 142.484 140.803 142.174 140.918 141.842L140.925 141.819C141.29 141.309 141.431 140.88 141.829 140.555C142.011 140.3 142.194 140.045 142.404 140.008C142.807 139.714 142.979 139.461 143.384 139.177C143.604 139.138 143.566 138.922 143.787 138.883C144.19 138.589 144.589 138.518 145.034 138.217L145.475 138.139C146.592 137.639 147.818 137.427 149.038 137.521L148.984 137.52C149.204 137.481 149.463 137.659 149.673 137.622C150.114 137.544 150.363 137.723 150.842 137.862C151.101 138.039 151.321 138 151.758 138.146C152.017 138.323 152.238 138.285 152.486 138.464C153.531 138.933 154.482 139.582 155.293 140.379L155.32 140.407C155.579 140.584 155.617 140.8 155.874 140.967C156.131 141.135 156.33 141.407 156.448 141.705L156.45 141.715C156.622 141.897 156.75 142.13 156.797 142.398L156.817 142.511C156.855 142.727 157.114 142.904 157.183 143.296C157.407 143.703 157.578 144.182 157.667 144.687L157.709 144.987L157.707 144.977L157.781 145.336C157.869 145.82 157.869 146.316 157.78 146.801L157.785 146.769L157.783 146.758ZM133.331 83.6987C132.762 80.475 132.23 77.4573 131.555 74.9213C133.066 77.0976 134.843 79.439 136.315 81.399L142.07 88.3596L146.892 87.5095L143.328 67.3019L138.938 68.0762L139.998 74.091C140.42 76.9982 141.089 79.8642 141.996 82.6592L141.918 82.397C140.48 80.0945 138.897 77.8838 137.176 75.778L137.417 76.0967L131.7 69.3524L126.216 70.3192L129.78 90.5268L134.171 89.7525L133.11 83.7376L133.331 83.6987ZM86.3647 155.804C86.3412 158.251 86.3579 160.68 86.5235 163.093C85.8852 160.763 85.0767 158.697 84.2179 156.406L80.907 148.133L75.8647 149.022L75.6623 157.702C75.6751 160.355 75.4415 162.838 75.59 165.032C74.7692 162.957 73.916 160.452 73.0151 158.169L69.9717 150.061L64.9294 150.95L73.3142 170.307L78.3564 169.418L78.7767 160.254C78.9113 158.198 78.9168 156.136 78.793 154.081L78.7705 153.83C79.4088 156.16 80.1809 158.02 80.7114 159.923L84.0202 168.43L89.0624 167.541L90.7621 146.406L86.5603 147.147L86.3647 155.804ZM223.073 135.023L230.531 133.708L229.888 130.062L222.43 131.377L221.671 127.072L229.56 125.681L228.915 122.024L216.205 124.266L219.768 144.473L232.919 142.154L232.277 138.508L223.946 139.977L223.073 135.023ZM162.276 213.337C159.461 212.729 158.062 212.53 157.835 211.242C157.646 210.171 158.333 209.158 160.56 208.765C162.158 208.547 163.712 208.581 165.207 208.827L165.097 208.815L165.546 204.976C163.764 204.617 161.93 204.567 160.126 204.828L160.095 204.833C155.273 205.683 152.66 208.799 153.266 212.239C153.796 215.247 156.295 216.579 160.02 217.25C162.582 217.648 163.794 218.135 164.021 219.423C164.248 220.71 163.308 221.768 161.113 222.155C159.242 222.446 157.331 222.319 155.523 221.781L155.602 221.799L155.444 225.82C157.268 226.337 159.329 226.473 161.409 226.106L161.556 226.08L161.545 226.082C167.239 225.078 169.383 221.822 168.775 218.372C168.362 215.599 166.234 213.977 162.276 213.337Z" fill="#303030" fill-opacity="0.3"/>
<path d="M126.915 22.9916C57.3013 35.2664 10.6177 100.557 22.6528 168.812C34.6879 237.066 100.887 282.453 170.501 270.178C240.115 257.903 286.799 192.612 274.764 124.358C262.639 56.1511 196.514 10.815 126.926 22.9897L126.915 22.9916ZM256.383 139.344C259.296 188.669 227.44 233.504 179.751 247.881L179.245 248.024L163.288 229.333L154.684 252.344C104.592 255.123 59.4734 224.126 45.2458 177.529L45.1061 177.044L63.6313 161.586L40.9746 153.613C38.362 104.459 70.1667 59.8869 117.672 45.5104L118.178 45.3681L134.135 64.0592L142.739 41.0478C192.983 38.2099 238.25 69.4358 252.255 116.305L252.383 116.782L234.443 131.691L256.383 139.344Z" fill="#303030" fill-opacity="0.3"/>
</g>
<defs>
<clipPath id="clip0_9_3">
<rect width="256" height="251" fill="white" transform="translate(0.859985 45.2186) rotate(-10)"/>
</clipPath>
</defs>
</svg>
